HIERARCHY
ROOT Hips
{
	OFFSET 0.00000 0.00000 0.00000
	CHANNELS 6 Xposition Yposition Zposition Zrotation Yrotation Xrotation 
	JOINT LHipJoint
	{
		OFFSET 0 0 0
		CHANNELS 3 Zrotation Yrotation Xrotation
		JOINT LeftUpLeg
		{
			OFFSET 1.62964 -1.40469 0.78906
			CHANNELS 3 Zrotation Yrotation Xrotation
			JOINT LeftLeg
			{
				OFFSET 2.29640 -6.30932 0.00000
				CHANNELS 3 Zrotation Yrotation Xrotation
				JOINT LeftFoot
				{
					OFFSET 2.29451 -6.30412 0.00000
					CHANNELS 3 Zrotation Yrotation Xrotation
					JOINT LeftToeBase
					{
						OFFSET 0.03611 -0.09921 1.56387
						CHANNELS 3 Zrotation Yrotation Xrotation
						End Site
						{
							OFFSET 0.00000 -0.00000 0.80291
						}
					}
				}
			}
		}
	}
	JOINT RHipJoint
	{
		OFFSET 0 0 0
		CHANNELS 3 Zrotation Yrotation Xrotation
		JOINT RightUpLeg
		{
			OFFSET -1.73712 -1.40469 0.78906
			CHANNELS 3 Zrotation Yrotation Xrotation
			JOINT RightLeg
			{
				OFFSET -2.28137 -6.26801 0.00000
				CHANNELS 3 Zrotation Yrotation Xrotation
				JOINT RightFoot
				{
					OFFSET -2.28681 -6.28298 0.00000
					CHANNELS 3 Zrotation Yrotation Xrotation
					JOINT RightToeBase
					{
						OFFSET -0.15927 -0.43759 1.61103
						CHANNELS 3 Zrotation Yrotation Xrotation
						End Site
						{
							OFFSET -0.00000 -0.00000 0.84630
						}
					}
				}
			}
		}
	}
	JOINT LowerBack
	{
		OFFSET 0 0 0
		CHANNELS 3 Zrotation Yrotation Xrotation
		JOINT Spine
		{
			OFFSET -0.04227 2.04338 -0.00225
			CHANNELS 3 Zrotation Yrotation Xrotation
			JOINT Spine1
			{
				OFFSET -0.02148 2.04482 -0.04273
				CHANNELS 3 Zrotation Yrotation Xrotation
				JOINT Neck
				{
					OFFSET 0 0 0
					CHANNELS 3 Zrotation Yrotation Xrotation
					JOINT Neck1
					{
						OFFSET 0.09180 1.44629 0.19359
						CHANNELS 3 Zrotation Yrotation Xrotation
						JOINT Head
						{
							OFFSET 0.00887 1.40645 0.14750
							CHANNELS 3 Zrotation Yrotation Xrotation
							End Site
							{
								OFFSET -0.00669 1.50671 0.03707
							}
						}
					}
				}
				JOINT LeftShoulder
				{
					OFFSET 0 0 0
					CHANNELS 3 Zrotation Yrotation Xrotation
					JOINT LeftArm
					{
						OFFSET 2.17674 1.86763 -0.06520
						CHANNELS 3 Zrotation Yrotation Xrotation
						JOINT LeftForeArm
						{
							OFFSET 4.65776 -0.00000 0.00000
							CHANNELS 3 Zrotation Yrotation Xrotation
							JOINT LeftHand
							{
								OFFSET 3.55539 -0.00000 0.00000
								CHANNELS 3 Zrotation Yrotation Xrotation
								JOINT LeftFingerBase
								{
									OFFSET 0 0 0
									CHANNELS 3 Zrotation Yrotation Xrotation
									JOINT LeftHandIndex1
									{
										OFFSET 0.70726 -0.00000 0.00000
										CHANNELS 3 Zrotation Yrotation Xrotation
										End Site
										{
											OFFSET 0.57022 -0.00000 0.00000
										}
									}
								}
								JOINT LThumb
								{
									OFFSET 0 0 0
									CHANNELS 3 Zrotation Yrotation Xrotation
									End Site
									{
										OFFSET 0.57892 -0.00000 0.57892
									}
								}
							}
						}
					}
				}
				JOINT RightShoulder
				{
					OFFSET 0 0 0
					CHANNELS 3 Zrotation Yrotation Xrotation
					JOINT RightArm
					{
						OFFSET -2.80694 1.55459 -0.32496
						CHANNELS 3 Zrotation Yrotation Xrotation
						JOINT RightForeArm
						{
							OFFSET -4.71925 -0.00000 -0.00000
							CHANNELS 3 Zrotation Yrotation Xrotation
							JOINT RightHand
							{
								OFFSET -3.56990 -0.00000 0.00000
								CHANNELS 3 Zrotation Yrotation Xrotation
								JOINT RightFingerBase
								{
									OFFSET 0 0 0
									CHANNELS 3 Zrotation Yrotation Xrotation
									JOINT RightHandIndex1
									{
										OFFSET -0.50776 -0.00000 0.00000
										CHANNELS 3 Zrotation Yrotation Xrotation
										End Site
										{
											OFFSET -0.40937 -0.00000 0.00000
										}
									}
								}
								JOINT RThumb
								{
									OFFSET 0 0 0
									CHANNELS 3 Zrotation Yrotation Xrotation
									End Site
									{
										OFFSET -0.41562 -0.00000 0.41562
									}
								}
							}
						}
					}
				}
			}
		}
	}
}
MOTION
Frames: 9
Frame Time: .0083333
-1.122 16.2797 20.6015 0 0 0 0 0 0 -21 0 0 0 0 0 0 0 0 0 0 0 0 0 0 21 0 0 0 0 0 0 0 0 0 0 0 0 0 0 0 0 0 0 0 0 0 0 -16 0 0 21 0 0 11 0 0 0 -8 0 0 0 0 0 0 0 0 0 0 0 0 0 0 0 0 0 0 0 0 8 0 0 0 0 0 0 0 0 0 0 0 0 0 0 0 0 0
-1.1220 16.2797 20.6015 -176.2410 -2.4113 -153.8950 0.0000 0.0000 0.0000 -12.3666 -16.5580 -20.8403 0.1721 2.6721 7.3673 0.0850 -4.5273 -5.6703 2.6340 -10.0776 -29.2285 0.0000 0.0000 0.0000 24.2598 15.5868 -20.5382 -0.1526 -2.5170 6.9368 -0.9575 3.7514 -17.6143 -0.9843 6.3151 -17.7015 -2.1282 -0.4069 -28.0760 0.7661 -0.6164 -1.9779 1.8132 -0.7062 13.4582 0.6537 -3.3351 -5.2555 3.7721 -4.6794 1.4837 0.9315 -2.2915 1.4269 -0.0000 0.0000 0.0000 -85.4860 -0.9600 21.7740 13.9955 -22.7283 -2.8264 -0.0000 -0.0000 1.6666 21.8957 -12.0574 -4.7991 -7.1250 0.0000 -0.0000 -3.6950 17.0326 2.4558 -0.0000 0.0000 0.0000 93.0071 -6.4656 10.5178 -20.0590 30.7133 -5.5614 0.0000 -0.0000 -3.4661 -13.8328 -53.3508 11.1750 7.1250 -0.0000 -0.0000 67.4763 -76.5331 -54.1802
-1.1201 16.2785 20.6016 -176.2550 -2.3367 -153.9530 0.0000 0.0000 0.0000 -12.3993 -16.5262 -20.7256 0.1684 2.6436 7.2879 0.0842 -4.4371 -5.6206 2.6313 -10.0727 -29.2126 0.0000 0.0000 0.0000 24.2065 15.7262 -20.4405 -0.1538 -2.5274 6.9655 -0.9613 3.6783 -17.6605 -0.9405 6.1769 -17.2987 -2.2629 -0.4295 -28.0580 0.7944 -0.6010 -1.9399 1.9306 -0.7065 13.4939 0.0595 -3.0980 -3.0969 4.9876 -4.2617 -1.3536 1.4769 -2.1695 0.2125 0.0000 -0.0000 0.0000 -85.5432 -1.0251 21.7325 13.8863 -22.5720 -2.7843 -0.0000 -0.0000 2.0172 22.1122 -12.7440 -5.1217 -7.1250 0.0000 -0.0000 -3.5730 16.2784 2.4330 0.0000 -0.0000 0.0000 93.0182 -6.4323 10.4217 -20.0694 30.7259 -5.5668 0.0000 -0.0000 -3.3969 -13.5106 -53.1888 10.8888 7.1250 -0.0000 -0.0000 66.9378 -76.3642 -53.5034
-1.1232 16.2798 20.6032 -176.3480 -2.2558 -153.9060 0.0000 0.0000 0.0000 -12.5012 -16.6638 -20.6810 0.1640 2.6093 7.1928 0.0872 -4.2276 -5.6279 2.6316 -10.0734 -29.2146 0.0000 0.0000 0.0000 24.0420 15.7943 -20.5006 -0.1551 -2.5377 6.9942 -0.9576 3.6333 -17.6314 -0.9303 6.1444 -17.2040 -2.3694 -0.4487 -28.1239 0.7538 -0.5873 -1.9384 1.9504 -0.7066 13.5304 -0.3828 -3.4058 -3.2975 5.7484 -4.6773 -1.7265 1.7893 -2.3904 0.1741 0.0000 0.0000 0.0000 -85.5189 -0.9883 21.8371 13.8373 -22.5017 -2.7655 -0.0000 -0.0000 2.3480 22.5536 -13.1697 -5.4054 -7.1250 0.0000 -0.0000 -3.2882 15.7778 2.2740 0.0000 0.0000 0.0000 93.0522 -6.3557 10.3909 -19.9819 30.6205 -5.5221 0.0000 -0.0000 -3.3628 -13.6043 -53.2444 10.9731 7.1250 -0.0000 -0.0000 67.1264 -76.4159 -53.7321
-1.1217 16.2784 20.6046 -176.2920 -2.2706 -153.8810 0.0000 0.0000 0.0000 -12.3810 -16.7372 -20.7352 0.1658 2.6234 7.2318 0.0892 -4.1734 -5.6618 2.5398 -9.9099 -28.6854 0.0000 0.0000 0.0000 24.0817 15.9763 -20.4420 -0.1515 -2.5079 6.9114 -0.9478 3.4086 -17.5694 -0.9505 6.2087 -17.3911 -2.3613 -0.4728 -28.1605 0.7917 -0.6285 -1.9431 1.9732 -0.7273 13.5471 -1.1664 -3.0537 -2.9609 6.5284 -4.1865 -1.7606 2.1938 -2.1489 0.1287 -0.0000 -0.0000 0.0000 -85.5450 -0.9586 21.9403 13.8281 -22.4885 -2.7620 -0.0000 -0.0000 2.5545 22.8476 -13.1430 -5.4725 -7.1250 0.0000 -0.0000 -3.0844 15.7753 2.1328 -0.0000 -0.0000 0.0000 92.9791 -6.2923 10.5077 -19.8569 30.4695 -5.4586 0.0000 -0.0000 -3.5136 -13.6856 -52.8006 10.9769 7.1250 -0.0000 -0.0000 65.3138 -76.3186 -51.9702
-1.1191 16.2800 20.6067 -176.2080 -2.2622 -153.9390 0.0000 0.0000 0.0000 -12.2645 -16.6867 -20.7318 0.1685 2.6442 7.2897 0.0923 -4.1698 -5.7383 2.5655 -9.9560 -28.8344 0.0000 0.0000 0.0000 24.1974 15.9738 -20.3324 -0.1462 -2.4637 6.7889 -0.9348 3.3853 -17.4476 -0.9565 6.2277 -17.4465 -2.3676 -0.4883 -28.0983 0.8636 -0.6558 -1.9378 2.0498 -0.7416 13.5227 -1.5099 -2.8118 -2.8007 6.7069 -3.8658 -1.1747 2.3163 -1.9710 0.2832 -0.0000 -0.0000 0.0000 -85.6429 -0.9907 21.9027 13.7786 -22.4173 -2.7431 -0.0000 -0.0000 2.6881 22.9286 -12.9541 -5.4169 -7.1250 0.0000 -0.0000 -3.0190 15.9696 2.0748 -0.0000 -0.0000 0.0000 92.8943 -6.3168 10.6099 -19.8033 30.4046 -5.4314 0.0000 -0.0000 -3.6707 -13.8739 -52.3145 11.0598 7.1250 -0.0000 -0.0000 63.3106 -76.2355 -50.0694
-1.1261 16.2827 20.6116 -176.2410 -2.2811 -153.9310 0.0000 0.0000 0.0000 -12.3319 -16.7803 -20.7422 0.1706 2.6606 7.3353 0.0935 -4.0956 -5.7455 2.5655 -9.9561 -28.8347 0.0000 0.0000 0.0000 24.1862 15.6218 -20.4586 -0.1441 -2.4461 6.7404 -0.9266 3.6863 -17.3259 -0.9700 6.2704 -17.5710 -2.3240 -0.4935 -28.0597 0.8470 -0.6789 -1.9694 1.9961 -0.7493 13.4653 -1.2115 -3.1572 -3.0027 6.4485 -4.3515 -0.6554 2.1626 -2.1971 0.4870 0.0000 0.0000 0.0000 -85.6511 -0.9108 21.9715 13.7718 -22.4076 -2.7405 -0.0000 -0.0000 2.6339 22.9796 -12.7014 -5.3267 -7.1250 0.0000 -0.0000 -2.9711 16.2357 2.0247 0.0000 0.0000 0.0000 92.9433 -6.4282 10.6230 -19.8106 30.4135 -5.4352 0.0000 -0.0000 -3.6816 -14.4251 -52.1373 11.4792 7.1250 -0.0000 -0.0000 62.3451 -76.3897 -49.3638
-1.1312 16.2850 20.6190 -176.2310 -2.2885 -153.8900 0.0000 0.0000 0.0000 -12.3741 -16.6477 -20.8827 0.1739 2.6860 7.4057 0.0871 -4.2042 -5.6190 2.5467 -9.9223 -28.7256 0.0000 0.0000 0.0000 24.1988 15.6175 -20.5146 -0.1441 -2.4467 6.7418 -0.9267 3.7731 -17.3160 -0.9269 6.1335 -17.1721 -2.2641 -0.4902 -28.0174 0.8375 -0.6998 -2.0172 1.9419 -0.7561 13.3866 -1.3073 -3.0563 -3.0057 6.4633 -4.2293 -0.1741 2.1835 -2.1229 0.6363 -0.0000 -0.0000 0.0000 -85.6302 -0.8418 22.0964 13.7502 -22.3765 -2.7323 -0.0000 -0.0000 2.5514 23.1289 -12.6084 -5.3267 -7.1250 0.0000 -0.0000 -2.8632 16.3204 1.9457 -0.0000 -0.0000 0.0000 93.0228 -6.4851 10.5098 -19.7854 30.3829 -5.4224 0.0000 -0.0000 -3.4776 -14.7087 -51.9790 11.6841 7.1250 -0.0000 -0.0000 61.5782 -76.4447 -48.7345
-1.1289 16.2856 20.6129 -176.1740 -2.1107 -153.8890 0.0000 0.0000 0.0000 -12.2868 -16.6544 -20.8070 0.1704 2.6595 7.3322 0.0954 -3.9704 -5.7603 2.6847 -10.1663 -29.5170 0.0000 0.0000 0.0000 24.1161 16.0972 -20.3179 -0.1426 -2.4335 6.7053 -0.9307 3.5019 -17.3912 -0.8686 5.9424 -16.6175 -2.3145 -0.4828 -28.1447 0.8640 -0.6773 -1.9954 2.0099 -0.7522 13.4801 -1.4445 -2.9226 -3.0227 6.6042 -4.0692 0.2702 2.2550 -2.0322 0.7796 0.0000 0.0000 0.0000 -85.6534 -0.8885 22.0620 13.6488 -22.2304 -2.6938 -0.0000 -0.0000 2.5742 23.2944 -12.7348 -5.4217 -7.1250 0.0000 -0.0000 -2.7552 16.1671 1.8813 0.0000 0.0000 0.0000 93.0311 -6.4431 10.4136 -19.7064 30.2870 -5.3825 0.0000 -0.0000 -3.1840 -14.4657 -51.8400 11.4666 7.1250 -0.0000 -0.0000 61.1609 -76.2987 -48.2112
